<svg xmlns="http://www.w3.org/2000/svg" xmlns:xlink="http://www.w3.org/1999/xlink" width="2380" zoomAndPan="magnify" viewBox="0 0 1784.88 1784.99993" height="2380" preserveAspectRatio="xMidYMid meet" version="1.0"><defs><clipPath id="31baeff04d"><path d="M 850 103.941406 L 935 103.941406 L 935 273 L 850 273 Z M 850 103.941406 " clip-rule="nonzero"/></clipPath><clipPath id="83ad9a2f3c"><path d="M 103.882812 850 L 273 850 L 273 935 L 103.882812 935 Z M 103.882812 850 " clip-rule="nonzero"/></clipPath></defs><path fill="#ff8032" d="M 610.773438 836.117188 C 579.683594 836.117188 554.453125 810.941406 554.453125 779.796875 L 554.453125 667.15625 C 554.453125 636.007812 579.683594 610.832031 610.773438 610.832031 C 641.863281 610.832031 667.09375 636.007812 667.09375 667.15625 L 667.09375 779.796875 C 667.09375 810.941406 641.863281 836.117188 610.773438 836.117188 Z M 610.773438 836.117188 " fill-opacity="1" fill-rule="nonzero"/><path fill="#ff8032" d="M 892.378906 610.832031 L 892.378906 554.511719 C 892.378906 523.367188 917.609375 498.191406 948.699219 498.191406 C 979.789062 498.191406 1005.019531 523.367188 1005.019531 554.511719 L 1005.019531 610.832031 C 1005.019531 641.980469 979.789062 667.15625 948.699219 667.15625 C 917.609375 667.15625 892.378906 641.980469 892.378906 610.832031 Z M 892.378906 610.832031 " fill-opacity="1" fill-rule="nonzero"/><path fill="#ff8032" d="M 1117.664062 667.15625 C 1086.574219 667.15625 1061.34375 641.980469 1061.34375 610.832031 L 1061.34375 554.511719 C 1061.34375 523.367188 1086.574219 498.191406 1117.664062 498.191406 C 1148.753906 498.191406 1173.984375 523.367188 1173.984375 554.511719 L 1173.984375 610.832031 C 1173.984375 641.980469 1148.753906 667.15625 1117.664062 667.15625 Z M 1117.664062 667.15625 " fill-opacity="1" fill-rule="nonzero"/><path fill="#ff8032" d="M 667.09375 1680.933594 L 667.09375 1230.367188 C 598.15625 1161.429688 554.453125 1061.402344 554.453125 892.4375 L 554.453125 876.78125 C 571.066406 886.46875 590.160156 892.4375 610.773438 892.4375 C 644.566406 892.4375 674.585938 877.175781 695.253906 853.519531 C 715.925781 877.175781 745.945312 892.4375 779.738281 892.4375 C 809.980469 892.4375 837.351562 880.328125 857.628906 860.84375 C 886.410156 912.996094 941.265625 948.761719 1005.019531 948.761719 L 1061.34375 948.761719 L 1061.34375 892.4375 L 1005.019531 892.4375 C 942.785156 892.4375 892.378906 842.03125 892.378906 779.796875 L 892.378906 751.636719 C 892.378906 736.089844 904.996094 723.476562 920.539062 723.476562 L 1117.664062 723.476562 C 1179.898438 723.476562 1230.304688 773.882812 1230.304688 836.117188 L 1230.304688 892.4375 C 1230.304688 1061.402344 1185.023438 1162.386719 1061.34375 1230.367188 L 1061.34375 1680.933594 Z M 667.09375 1680.933594 " fill-opacity="1" fill-rule="nonzero"/><path fill="#ff8032" d="M 779.738281 836.117188 C 748.648438 836.117188 723.414062 810.941406 723.414062 779.796875 L 723.414062 610.832031 C 723.414062 579.6875 748.648438 554.511719 779.738281 554.511719 C 810.824219 554.511719 836.058594 579.6875 836.058594 610.832031 L 836.058594 779.796875 C 836.058594 810.941406 810.824219 836.117188 779.738281 836.117188 Z M 779.738281 836.117188 " fill-opacity="1" fill-rule="nonzero"/><g clip-path="url(#31baeff04d)"><path fill="#ff8032" d="M 867.035156 103.941406 L 917.722656 103.941406 C 927.074219 103.941406 934.621094 111.488281 934.621094 120.839844 L 934.621094 256.011719 C 934.621094 265.359375 927.074219 272.90625 917.722656 272.90625 L 867.035156 272.90625 C 857.683594 272.90625 850.136719 265.359375 850.136719 256.011719 L 850.136719 120.839844 C 850.136719 111.488281 857.683594 103.941406 867.035156 103.941406 Z M 867.035156 103.941406 " fill-opacity="1" fill-rule="nonzero"/></g><path fill="#ff8032" d="M 476.164062 222.273438 L 520.039062 196.929688 C 528.148438 192.253906 538.511719 195.015625 543.1875 203.066406 L 610.773438 320.160156 C 615.449219 328.214844 612.6875 338.578125 604.578125 343.25 L 560.703125 368.597656 C 552.59375 373.269531 542.230469 370.453125 537.554688 362.402344 L 469.96875 245.308594 C 465.351562 237.253906 468.113281 226.890625 476.164062 222.273438 Z M 476.164062 222.273438 " fill-opacity="1" fill-rule="nonzero"/><path fill="#ff8032" d="M 196.871094 520.15625 L 222.214844 476.28125 C 226.832031 468.171875 237.195312 465.414062 245.25 470.03125 L 362.285156 537.617188 C 370.339844 542.289062 373.15625 552.597656 368.480469 560.707031 L 343.136719 604.582031 C 338.460938 612.636719 328.152344 615.453125 320.042969 610.777344 L 203.007812 543.246094 C 194.953125 538.574219 192.195312 528.210938 196.871094 520.15625 Z M 196.871094 520.15625 " fill-opacity="1" fill-rule="nonzero"/><path fill="#ff8032" d="M 1539.507812 1314.847656 L 1422.472656 1247.261719 C 1414.417969 1242.585938 1411.601562 1232.28125 1416.277344 1224.171875 L 1441.621094 1180.296875 C 1446.296875 1172.242188 1456.605469 1169.425781 1464.714844 1174.101562 L 1581.75 1241.6875 C 1589.804688 1246.359375 1592.621094 1256.667969 1587.945312 1264.777344 L 1562.601562 1308.652344 C 1557.925781 1316.707031 1547.5625 1319.464844 1539.507812 1314.847656 Z M 1539.507812 1314.847656 " fill-opacity="1" fill-rule="nonzero"/><path fill="#ff8032" d="M 1314.789062 245.308594 L 1247.203125 362.34375 C 1242.527344 370.398438 1232.21875 373.214844 1224.109375 368.539062 L 1180.234375 343.195312 C 1172.183594 338.519531 1169.367188 328.214844 1174.039062 320.105469 L 1241.625 203.070312 C 1246.300781 195.015625 1256.609375 192.199219 1264.71875 196.875 L 1308.59375 222.21875 C 1316.644531 226.890625 1319.40625 237.253906 1314.789062 245.308594 Z M 1314.789062 245.308594 " fill-opacity="1" fill-rule="nonzero"/><path fill="#ff8032" d="M 1581.75 543.246094 L 1464.65625 610.832031 C 1456.605469 615.507812 1446.242188 612.75 1441.566406 604.636719 L 1416.222656 560.765625 C 1411.546875 552.710938 1414.308594 542.347656 1422.417969 537.671875 L 1539.453125 470.085938 C 1547.507812 465.414062 1557.871094 468.171875 1562.542969 476.28125 L 1587.886719 520.15625 C 1592.5625 528.210938 1589.804688 538.574219 1581.75 543.246094 Z M 1581.75 543.246094 " fill-opacity="1" fill-rule="nonzero"/><path fill="#ff8032" d="M 222.214844 1308.652344 L 196.871094 1264.777344 C 192.195312 1256.722656 194.953125 1246.359375 203.066406 1241.6875 L 320.101562 1174.042969 C 328.152344 1169.371094 338.515625 1172.128906 343.191406 1180.238281 L 368.535156 1224.113281 C 373.210938 1232.167969 370.449219 1242.53125 362.339844 1247.207031 L 245.25 1314.847656 C 237.195312 1319.464844 226.832031 1316.707031 222.214844 1308.652344 Z M 222.214844 1308.652344 " fill-opacity="1" fill-rule="nonzero"/><g clip-path="url(#83ad9a2f3c)"><path fill="#ff8032" d="M 103.882812 917.785156 L 103.882812 867.09375 C 103.882812 857.746094 111.429688 850.199219 120.78125 850.199219 L 255.949219 850.199219 C 265.300781 850.199219 272.847656 857.746094 272.847656 867.09375 L 272.847656 917.785156 C 272.847656 927.132812 265.300781 934.679688 255.949219 934.679688 L 120.78125 934.679688 C 111.429688 934.679688 103.882812 927.132812 103.882812 917.785156 Z M 103.882812 917.785156 " fill-opacity="1" fill-rule="nonzero"/></g><path fill="#ff8032" d="M 1663.980469 934.679688 L 1528.808594 934.679688 C 1519.457031 934.679688 1511.910156 927.132812 1511.910156 917.785156 L 1511.910156 867.09375 C 1511.910156 857.746094 1519.457031 850.199219 1528.808594 850.199219 L 1663.980469 850.199219 C 1673.328125 850.199219 1680.875 857.746094 1680.875 867.09375 L 1680.875 917.785156 C 1680.875 927.132812 1673.328125 934.679688 1663.980469 934.679688 Z M 1663.980469 934.679688 " fill-opacity="1" fill-rule="nonzero"/></svg>